<?xml version="1.0" standalone="no"?>
<!DOCTYPE svg PUBLIC "-//W3C//DTD SVG 20010904//EN"
 "http://www.w3.org/TR/2001/REC-SVG-20010904/DTD/svg10.dtd">
<svg version="1.0" xmlns="http://www.w3.org/2000/svg"
 width="1200.000000pt" height="1200.000000pt" viewBox="0 0 1200.000000 1200.000000"
 preserveAspectRatio="xMidYMid meet">

<g transform="translate(0.000000,1200.000000) scale(0.100000,-0.100000)"
fill="#000000" stroke="none">
<path d="M5045 7899 c-127 -166 -602 -784 -765 -994 -68 -88 -146 -189 -174
-225 -27 -36 -82 -105 -121 -155 -39 -49 -108 -138 -153 -197 l-83 -108 1351
-2 1350 -3 -146 -190 c-80 -104 -155 -200 -167 -212 l-20 -23 -1184 0 c-1016
0 -1183 -2 -1176 -14 4 -8 121 -160 258 -337 138 -178 295 -382 351 -454 55
-71 154 -199 220 -283 65 -84 139 -182 164 -217 44 -62 246 -326 345 -451 l50
-63 1513 -1 c831 0 1512 2 1512 4 0 2 -129 170 -286 373 -158 202 -292 376
-298 386 -10 16 -68 17 -986 17 l-976 0 -164 212 c-91 117 -221 284 -289 372
l-124 161 835 3 835 2 45 58 c24 31 111 143 193 247 136 174 220 282 452 583
l82 107 -1225 5 -1225 5 88 115 c48 63 152 198 232 300 81 102 171 218 201
258 l55 72 977 0 976 0 292 375 c160 207 293 382 296 390 5 13 -175 15 -1502
15 l-1509 0 -100 -131z"/>
</g>
</svg>
