<?xml version="1.0" encoding="UTF-8" standalone="no"?><!DOCTYPE svg PUBLIC "-//W3C//DTD SVG 1.1//EN" "http://www.w3.org/Graphics/SVG/1.1/DTD/svg11.dtd"><svg width="100%" height="100%" viewBox="0 0 486 453" version="1.1" xmlns="http://www.w3.org/2000/svg" xmlns:xlink="http://www.w3.org/1999/xlink" xml:space="preserve" xmlns:serif="http://www.serif.com/" style="fill-rule:evenodd;clip-rule:evenodd;stroke-linejoin:round;stroke-miterlimit:2;"><g><path d="M151.5,34.1c-12.7,16.6 -60.2,78.4 -76.5,99.4c-6.8,8.8 -14.6,18.9 -17.4,22.5c-2.7,3.6 -8.2,10.5 -12.1,15.5c-3.9,4.9 -10.8,13.8 -15.3,19.7l-8.3,10.8l135.1,0.2l135,0.3l-14.6,19c-8,10.4 -15.5,20 -16.7,21.2l-2,2.3l-118.4,0c-101.6,0 -118.3,0.2 -117.6,1.4c0.4,0.8 12.1,16 25.8,33.7c13.8,17.8 29.5,38.2 35.1,45.4c5.5,7.1 15.4,19.9 22,28.3c6.5,8.4 13.9,18.2 16.4,21.7c4.4,6.2 24.6,32.6 34.5,45.1l5,6.3l151.3,0.1c83.1,0 151.2,-0.2 151.2,-0.4c0,-0.2 -12.9,-17 -28.6,-37.3c-15.8,-20.2 -29.2,-37.6 -29.8,-38.6c-1,-1.6 -6.8,-1.7 -98.6,-1.7l-97.6,0l-16.4,-21.2c-9.1,-11.7 -22.1,-28.4 -28.9,-37.2l-12.4,-16.1l83.5,-0.3l83.5,-0.2l4.5,-5.8c2.4,-3.1 11.1,-14.3 19.3,-24.7c13.6,-17.4 22,-28.2 45.2,-58.3l8.2,-10.7l-245,-1l8.8,-11.5c4.8,-6.3 15.2,-19.8 23.2,-30c8.1,-10.2 17.1,-21.8 20.1,-25.8l5.5,-7.2l195.3,0l29.2,-37.5c16,-20.7 29.3,-38.2 29.6,-39c0.5,-1.3 -17.5,-1.5 -150.2,-1.5l-150.9,0l-10,13.1Z" style="fill-rule:nonzero;"/></g></svg>