<svg version="1.1" id="Layer_1" xmlns="http://www.w3.org/2000/svg" xmlns:xlink="http://www.w3.org/1999/xlink" x="0px" y="0px"
	 width="100%" viewBox="0 0 1024 1024" enable-background="new 0 0 1024 1024" xml:space="preserve">
<path fill="#000000" opacity="1.000000" stroke="none" 
	d="
M539.711975,508.730896 
	C542.998901,504.397827 546.069458,500.348602 550.018921,495.140442 
	C472.880402,495.140442 397.193085,495.140442 321.832001,495.140442 
	C320.608093,492.608185 322.059937,491.652252 322.923096,490.533539 
	C360.782715,441.468353 398.680145,392.432281 436.459808,343.305634 
	C438.860779,340.183502 441.454803,338.977356 445.305389,338.980682 
	C527.796875,339.051636 610.288452,339.029114 692.780029,339.046814 
	C694.392273,339.047150 696.131836,338.660492 697.582031,339.962158 
	C698.238220,341.922211 696.698181,343.025085 695.748840,344.259338 
	C680.516479,364.061829 665.197571,383.797943 650.032776,403.651886 
	C647.491272,406.979279 644.236694,407.038147 640.684082,407.036713 
	C600.354858,407.020508 560.025635,407.032990 519.696411,407.035095 
	C508.197662,407.035675 496.698700,407.066742 485.200378,406.995605 
	C482.389709,406.978241 480.096130,407.473602 478.220306,409.913544 
	C464.512756,427.743469 450.690826,445.485443 436.960785,463.298187 
	C435.775513,464.835907 434.378998,466.369812 434.100891,469.580811 
	C502.686035,469.580811 571.130127,469.580811 639.335388,469.580811 
	C640.043640,472.381073 638.837097,473.448242 637.953796,474.592316 
	C617.795044,500.699890 597.587524,526.769897 577.496887,552.929626 
	C575.393738,555.668152 572.951904,556.317932 569.738159,556.312744 
	C526.909302,556.243286 484.080292,556.262451 441.251312,556.259521 
	C438.986542,556.259338 436.721771,556.259460 433.400726,556.259460 
	C437.970245,564.023193 443.253113,569.779663 447.938019,575.938416 
	C457.721313,588.799438 467.821655,601.420227 477.534821,614.332947 
	C480.137268,617.792664 482.992523,618.986694 487.225983,618.975952 
	C537.553833,618.848877 587.882629,618.988220 638.209717,618.747742 
	C644.620911,618.717102 648.803467,620.376648 652.791687,625.741516 
	C666.704651,644.456543 681.278931,662.679443 695.552917,681.127319 
	C696.614807,682.499756 698.162537,683.720947 698.163025,685.718567 
	C696.338867,687.335571 694.260986,686.887207 692.323792,686.887695 
	C610.332214,686.907837 528.340515,686.873413 446.349121,686.986145 
	C441.726929,686.992493 438.578735,685.562073 435.771057,681.899292 
	C399.798645,634.970947 363.709503,588.132141 327.696289,541.235046 
	C325.239899,538.036316 322.159821,535.173157 320.774261,531.265686 
	C323.097870,529.347717 325.343658,529.948303 327.427826,529.947266 
	C390.254700,529.915771 453.081696,529.867126 515.908264,530.008179 
	C521.215576,530.020081 524.977844,528.839783 527.975708,524.088684 
	C531.336792,518.761902 535.615967,514.014343 539.711975,508.730896 
z"/>
</svg>