<svg version="1.1" id="Layer_1" xmlns="http://www.w3.org/2000/svg" xmlns:xlink="http://www.w3.org/1999/xlink" x="0px" y="0px"
	 width="100%" viewBox="0 0 1024 1024" enable-background="new 0 0 1024 1024" xml:space="preserve">
<path fill="#000000" opacity="1.000000" stroke="none" 
	d="
M563.482971,781.570679 
	C555.494141,782.563599 548.015808,781.744690 540.656738,780.357300 
	C517.997559,776.085449 495.282257,777.277466 472.464355,778.607300 
	C456.284210,779.550232 439.697083,782.212952 424.080536,775.676392 
	C416.358154,772.444031 409.340790,767.497864 402.094666,763.175781 
	C399.998810,761.925781 399.863434,759.527100 400.063171,757.327515 
	C400.485657,752.675110 398.140320,749.730774 394.310486,747.711426 
	C383.534210,742.029541 372.647797,738.759460 359.872437,740.377625 
	C346.072357,742.125610 332.775787,738.199280 321.037384,730.233582 
	C317.317108,727.708923 313.617432,725.124878 310.125031,722.300110 
	C304.515137,717.762634 299.466400,712.766113 297.328156,705.489380 
	C294.560883,696.072021 289.933319,687.199768 287.615692,677.765381 
	C285.751373,670.176331 284.928619,662.103394 281.312317,655.276306 
	C274.530884,642.473999 272.877136,629.126892 272.554260,614.897522 
	C272.277374,602.694397 273.152313,590.227722 269.344574,578.196472 
	C265.512756,566.089050 260.378052,554.559082 254.772156,543.224548 
	C251.427948,536.462952 250.699753,529.202148 250.042770,521.921021 
	C249.365997,514.420349 250.336029,506.953552 251.158493,499.505585 
	C251.302002,498.205872 251.623474,496.829102 252.240463,495.693085 
	C259.765167,481.837982 260.364227,466.458130 261.906250,451.327026 
	C262.333527,447.134216 262.459961,443.073822 264.946716,439.440948 
	C266.489349,437.187256 266.980988,434.517548 266.939026,431.806702 
	C266.889343,428.597198 267.386169,425.465729 268.425690,422.469421 
	C274.854492,403.939178 280.670776,385.154633 288.072144,367.018372 
	C292.948792,355.068726 299.893494,343.896973 310.573151,335.753204 
	C314.911804,332.444763 317.732300,327.353760 323.076965,325.175446 
	C324.669525,324.526398 326.059448,324.301483 327.836639,324.533691 
	C333.109314,325.222626 337.695160,324.328461 342.321106,320.675079 
	C348.645721,315.680054 355.958557,311.886383 363.027283,307.895752 
	C372.480988,302.558716 380.854156,295.681915 389.739532,289.542786 
	C393.057678,287.250244 395.095703,283.701141 395.393646,279.370880 
	C395.649658,275.650421 398.418854,273.643158 401.186584,271.736176 
	C410.590668,265.256653 421.348480,263.203461 432.301056,260.586945 
	C447.458527,256.965942 463.140259,256.512787 478.062286,251.016800 
	C490.392944,246.475281 504.014923,247.680634 517.181030,248.355667 
	C519.007141,248.449295 520.842102,248.955338 522.644165,248.835770 
	C532.239685,248.199066 541.033203,250.059265 549.226929,255.495758 
	C558.005127,261.320038 568.012939,261.234589 578.184692,260.550232 
	C596.151428,259.341400 614.196716,258.641815 631.721558,264.002045 
	C641.774414,267.076874 651.692200,270.041107 662.397461,270.276703 
	C669.273315,270.427948 673.675171,276.332062 677.242188,281.154449 
	C684.724243,291.269897 694.629761,297.375183 705.813782,302.095276 
	C713.842041,305.483459 721.143799,310.157898 728.212830,315.183624 
	C738.635132,322.593353 743.504761,333.841949 748.361572,345.017151 
	C751.301453,351.781738 754.596436,358.166138 759.817871,363.596710 
	C764.327698,368.287170 765.602051,375.351105 770.305725,379.928009 
	C780.873169,390.210571 780.882629,402.884552 779.570374,416.181305 
	C778.846008,423.521515 777.217773,430.606781 775.595825,437.753937 
	C772.318298,452.197144 774.617920,466.575775 776.759521,480.902252 
	C778.334351,491.437317 780.429688,501.899811 781.799072,512.458740 
	C782.866516,520.689087 780.267273,528.642151 778.757935,536.649414 
	C776.263489,549.882874 773.020447,562.978699 772.228333,576.511108 
	C771.786804,584.055176 772.668579,591.510132 773.324829,598.941772 
	C775.319275,621.528442 771.351074,643.104553 762.906738,663.903442 
	C758.466797,674.839233 753.903992,685.845703 748.062256,696.056824 
	C742.599243,705.606018 736.237915,714.416809 726.024780,720.557251 
	C709.749573,730.342163 692.579346,737.302612 674.542358,742.781982 
	C660.534302,747.037537 648.239258,754.703125 637.235657,764.335754 
	C634.522400,766.711060 631.594788,768.303955 628.123047,769.234558 
	C607.024353,774.890320 585.475952,778.159363 563.482971,781.570679 
M395.100433,624.365479 
	C395.159393,631.867188 395.159393,631.867737 402.476379,631.862549 
	C405.308868,631.860535 408.141327,631.851746 410.973816,631.852295 
	C470.456146,631.862976 529.938477,631.863831 589.420776,631.916565 
	C592.539429,631.919312 595.187073,631.603271 597.384399,628.888916 
	C607.025024,616.979858 616.839050,605.211304 626.555054,593.362976 
	C627.356262,592.385986 628.489624,591.442627 628.040405,589.765686 
	C624.466003,587.790894 620.600159,588.898315 616.852539,588.901367 
	C562.035522,588.945740 507.218536,589.026245 452.401489,589.057007 
	C450.543030,589.058044 448.346741,589.651428 446.979004,587.198792 
	C447.460968,586.408081 447.875214,585.501770 448.487183,584.758057 
	C461.822662,568.552063 475.198151,552.378906 488.512299,536.155334 
	C490.333801,533.935852 492.634766,533.687622 495.221375,533.694275 
	C510.383453,533.733154 525.546204,533.645935 540.707520,533.758423 
	C543.791016,533.781311 546.068054,532.954407 548.060486,530.514954 
	C556.909607,519.680176 565.889587,508.952271 574.814819,498.179626 
	C576.111694,496.614349 577.494629,494.922668 576.383789,492.797546 
	C575.348999,490.817902 573.209290,491.270111 571.430908,491.268188 
	C541.439880,491.235870 511.448792,491.258789 481.457916,491.192261 
	C478.549896,491.185791 476.488556,492.131714 474.608185,494.410187 
	C449.059906,525.367737 423.449280,556.273865 397.802063,587.149536 
	C395.872314,589.472656 395.079529,591.913025 395.111908,594.911438 
	C395.214417,604.407227 395.124146,613.905029 395.100433,624.365479 
M548.500000,394.220001 
	C526.169434,394.217560 503.838074,394.306519 481.508911,394.126617 
	C477.590454,394.095032 474.931610,395.404053 472.539886,398.326843 
	C447.749817,428.621582 422.914093,458.878998 398.036865,489.102203 
	C396.021667,491.550476 395.115753,494.075287 395.137329,497.285065 
	C395.243713,513.115295 395.129669,528.946960 395.154053,544.777954 
	C395.156738,546.527954 394.645538,548.448792 396.073700,550.026489 
	C398.339783,549.998535 399.049774,548.080994 400.151886,546.744263 
	C429.399414,511.269348 458.676910,475.818726 487.777283,440.223358 
	C490.535858,436.849152 493.432343,435.739410 497.594116,435.752838 
	C539.755127,435.888947 581.916626,435.888336 624.078003,435.892487 
	C630.581665,435.893127 630.889526,435.535889 630.909851,429.142914 
	C630.940002,419.644257 630.945251,410.145447 630.929749,400.646729 
	C630.919556,394.385712 630.716919,394.168823 624.490662,394.169586 
	C599.493774,394.172607 574.496887,394.201111 548.500000,394.220001 
z"/>
</svg>